<svg width="200" height="200" viewBox="0 0 200 200" fill="none" xmlns="http://www.w3.org/2000/svg">
  <!-- Background Circle -->
  <circle cx="100" cy="100" r="95" fill="#000000" stroke="#F5A623" stroke-width="2"/>

  <!-- Crosshair/Target Design -->
  <circle cx="100" cy="100" r="70" stroke="#F5A623" stroke-width="1.5" opacity="0.3"/>
  <circle cx="100" cy="100" r="50" stroke="#F5A623" stroke-width="2" opacity="0.5"/>
  <circle cx="100" cy="100" r="30" stroke="#F5A623" stroke-width="2" opacity="0.7"/>

  <!-- Center Dot (Precision Point) -->
  <circle cx="100" cy="100" r="8" fill="#F5A623"/>

  <!-- Crosshair Lines -->
  <line x1="100" y1="20" x2="100" y2="80" stroke="#F5A623" stroke-width="2" opacity="0.6"/>
  <line x1="100" y1="120" x2="100" y2="180" stroke="#F5A623" stroke-width="2" opacity="0.6"/>
  <line x1="20" y1="100" x2="80" y2="100" stroke="#F5A623" stroke-width="2" opacity="0.6"/>
  <line x1="120" y1="100" x2="180" y2="100" stroke="#F5A623" stroke-width="2" opacity="0.6"/>

  <!-- Lightning Bolt (IQ/Intelligence Symbol) -->
  <path d="M 110 60 L 95 100 L 105 100 L 90 140 L 115 100 L 105 100 Z" fill="#F5A623" stroke="#F5A623" stroke-width="1"/>

  <!-- Corner Brackets (Terminal Style) -->
  <!-- Top Left -->
  <path d="M 30 40 L 30 30 L 40 30" stroke="#F5A623" stroke-width="2" fill="none" opacity="0.4"/>
  <!-- Top Right -->
  <path d="M 160 30 L 170 30 L 170 40" stroke="#F5A623" stroke-width="2" fill="none" opacity="0.4"/>
  <!-- Bottom Left -->
  <path d="M 40 170 L 30 170 L 30 160" stroke="#F5A623" stroke-width="2" fill="none" opacity="0.4"/>
  <!-- Bottom Right -->
  <path d="M 170 160 L 170 170 L 160 170" stroke="#F5A623" stroke-width="2" fill="none" opacity="0.4"/>

  <!-- Text: SIQ -->
  <text x="100" y="195" font-family="monospace, sans-serif" font-size="16" font-weight="bold" fill="#F5A623" text-anchor="middle" letter-spacing="3">SNIPERIQ</text>
</svg>
